<svg id="DM" xmlns="http://www.w3.org/2000/svg" viewBox="0 0 1000 1000"><defs><style>.cls-1{fill:#4662d9;}.cls-2,.cls-4{fill:#fff;}.cls-3{fill:#f89d0e;}.cls-3,.cls-4{stroke:#f89d0e;stroke-miterlimit:10;stroke-width:10px;}</style></defs><title>未标题-1</title><g id="D"><path id="右一" class="cls-1" d="M1000,500c0,276.14-268.63,500-600,500V950c276.14,0,500-201.47,500-450S676.14,50,400,50V0C731.37,0,1000,223.86,1000,500Z"/><path id="左一" class="cls-1" d="M400,0V1000H200V0ZM200,0H0V1000H200Z"/></g><path id="背景" class="cls-2" d="M900,500c0,248.53-223.86,450-500,450V50C676.14,50,900,251.47,900,500Z"/><g id="M"><g id="右"><polygon class="cls-3" points="235.77 700 40 700 186.83 301.23 382.6 301.23 235.77 700"/><polygon class="cls-4" points="339.55 698.77 535.32 698.77 388.49 300 192.72 300 339.55 698.77"/></g><g id="左"><polygon class="cls-3" points="540.45 700 344.68 700 491.51 301.23 687.28 301.23 540.45 700"/><polygon class="cls-4" points="644.23 698.77 840 698.77 693.17 300 497.4 300 644.23 698.77"/></g></g></svg>